<?xml version="1.0" standalone="no"?><!DOCTYPE svg PUBLIC "-//W3C//DTD SVG 1.1//EN" "http://www.w3.org/Graphics/SVG/1.1/DTD/svg11.dtd"><svg t="1516074949520" class="icon" style="" viewBox="0 0 1024 1024" version="1.1" xmlns="http://www.w3.org/2000/svg" p-id="3628" xmlns:xlink="http://www.w3.org/1999/xlink" width="200" height="200"><defs><style type="text/css"></style></defs><path d="M841.216 856.064c185.856-185.856 185.856-487.424 0-673.792C655.36-3.584 353.792-3.584 167.424 182.272c-185.856 185.856-185.856 487.424 0 673.792 186.368 185.856 487.936 185.856 673.792 0zM218.624 495.104c0-47.616 111.104-113.664 285.696-113.664 175.104 0 285.696 66.048 285.696 113.664 0 40.96 10.752 102.4-73.728 93.184-84.48-9.216-78.848-40.96-78.848-83.456 0-29.696-68.608-36.352-133.12-36.352-65.024 0-133.12 6.656-133.12 36.352 0 42.496 5.632 74.24-78.848 83.456-84.992 9.216-73.728-51.712-73.728-93.184z" fill="" p-id="3629"></path></svg>